<?xml version="1.0" encoding="utf-8"?>
<!-- Generator: Adobe Illustrator 18.1.1, SVG Export Plug-In . SVG Version: 6.00 Build 0)  -->
<svg version="1.1" id="Layer_1" xmlns="http://www.w3.org/2000/svg" xmlns:xlink="http://www.w3.org/1999/xlink" x="0px" y="0px"
	 viewBox="0 0 355 222" enable-background="new 0 0 355 222" xml:space="preserve">
<g>
	<g>
		<g>
			<defs>
				<circle id="SVGID_1_" cx="174.9" cy="110.2" r="110.5"/>
			</defs>
			<clipPath id="SVGID_2_">
				<use xlink:href="#SVGID_1_"  overflow="visible"/>
			</clipPath>
			<g clip-path="url(#SVGID_2_)">
				<path fill="#003C76" d="M263.7,53.1c10.9,17.6,16,37.1,16,56.3c0,3.7-0.2,7.3-0.6,11h3.8c0.9-5.5,1.3-11.1,1.3-16.7
					c0-18.8-5.1-37.9-15.7-55.1c-1.4-2.3-3-4.6-4.5-6.7C251.5,28,236,18.2,219.2,13C237,21.5,252.6,35.1,263.7,53.1z"/>
				<path fill="#003C76" d="M276,120.4c0.4-3.6,0.6-7.3,0.6-11c0-11.5-1.9-23-5.8-34.2c2.9,9.4,4.4,19,4.4,28.5
					c0,5.6-0.5,11.2-1.5,16.7H276z"/>
				<path fill="#003C76" d="M191.2,2.3c9.1,0.7,18.2,1.5,26.9,4c-12.4-4.9-25.6-7.5-38.9-7.5c-16.9,0-34,4.1-49.8,12.6
					c13.9-6.1,22.7-9.1,41.8-10.2C174.8,1,181.3,1.5,191.2,2.3z"/>
				<path fill="#003C76" d="M84.8,120.4c-1-5.5-1.4-11-1.4-16.5c0-32.2,17.5-65.8,46.8-84c14.2-8.8,28.2-12.2,36.6-14.4
					C150,6.5,133.2,11.5,118,21c-6.8,4.2-12.9,9-18.4,14.4c-7,8.1-15.4,18-19.6,27.6c-5.7,13.1-5.8,26.6-5.8,40.9
					c0,5.5,0.4,11,1.3,16.5H84.8z"/>
			</g>
			<g clip-path="url(#SVGID_2_)">
				<path fill="#579C42" d="M273.7,120.4c-4.6,26-19.8,50-44,65c-15.7,9.7-25.7,14.2-49.5,14.5c-17.7,0.2-36.1-5.1-51.2-14.4
					c15.7,13.3,30,23.8,54.8,23.3c15.5-0.3,34.5-5.7,50.2-15.3c24.4-17.8,39-44.7,42-73H273.7z"/>
				<path fill="#579C42" d="M103.2,164.9c-2.5-4-4.7-8.2-6.6-12.4c-6-10.2-9.9-21-11.8-32h-9.3c2.1,13.3,6.9,26.5,14.4,38.7
					c12.7,20.6,31.5,35.3,52.5,43.1C126.9,193.7,113.2,181.1,103.2,164.9z"/>
				<path fill="#579C42" d="M279.2,120.4c-1.8,17-7.6,33.6-17.1,48c11-14.1,18.1-30.7,20.9-48H279.2z"/>
			</g>
			<g clip-path="url(#SVGID_2_)">
				<path fill="#579C42" d="M120.5,38.3c1.2-0.8,2.3-1.6,3.6-2.3c15.5-9.6,32.7-14.1,49.7-14.1c32,0,63.4,16.2,81.6,45.6
					c9.8,15.8,14.4,33.2,14.4,50.5c0,0.9,0,1.7-0.1,2.6h3.8c0.4-3.6,0.6-7.3,0.6-11c0-18.7-5-37.6-15.6-54.7
					c-5.8-9.3-12.8-17.4-20.7-24.2c-18.3-13.4-40.3-20.7-62.6-21c-2.5,0.1-8.5-0.1-14.9,1.9c-10.5,3.2-15.1,6.4-18.5,8.6
					C133.5,25.3,126.7,31.7,120.5,38.3z"/>
				<path fill="#579C42" d="M279.1,120.4h4.3c0.4-3.9,0.7-7.9,0.7-11.8c-1.4-16.5-6.6-32.9-15.8-47.9c-0.4-0.7-0.9-1.4-1.4-2.2
					c8.6,16,12.8,33.5,12.8,50.7C279.7,113,279.5,116.7,279.1,120.4z"/>
				<path fill="#579C42" d="M79.2,120.4c0-1.1-0.1-2.2-0.1-3.3c0-14.2,2.2-25,8.7-40.8c7.3-23.2,23.2-44.3,45.5-58.1
					c0.9-0.5,1.7-1.1,2.6-1.6c-6.3,2.4-12.5,5.4-18.4,9.1c-32.8,20.3-49.2,50.4-49.2,91.5c0,1.1,0.3,2.2,0.3,3.3H79.2z"/>
			</g>
			<g clip-path="url(#SVGID_2_)">
				<path fill="#579C42" d="M170.4,213.5c1.3,0,2.6,0,4-0.1c-0.5-0.1-1-0.2-1.5-0.3c-31.3-0.7-61.6-16.8-79.3-45.5
					c-9.1-14.8-13.8-31-14.3-47.1h-9.9c0,0.6,5.6,30.5,13.8,43.7C102.8,195.9,135.5,213.5,170.4,213.5z"/>
				<path fill="#003C76" d="M269.7,120.4c-0.6,20.7-7.8,40.8-20.8,57.1c14-16.2,22.5-36.3,24.7-57.1H269.7z"/>
				<path fill="#003C76" d="M172,216.8c-38.8-1.3-72.7-19.9-92.9-52.7c-1.2-2-2.3-3.9-3.4-5.9c2.1,4.9,4.6,9.6,7.4,14.2
					c20.5,33.1,55.9,51.4,92.1,51.4c0,0,0,0,0,0c19.2,0,38.7-5.2,56.2-16c0.2-0.1,0.4-0.2,0.5-0.3c-11.9,4.3-36.4,7.6-36.4,7.6
					C191.9,215.8,182.1,217.1,172,216.8z"/>
				<path fill="#003C76" d="M279.1,120.4c-3,29.1-17.9,56.7-42.9,75.1c2.4-1.2,4.7-2.5,7-4c24.7-15.2,37.2-43.2,40.2-71.2H279.1z"/>
			</g>
			<g clip-path="url(#SVGID_2_)">
				<path fill="#76C5E2" d="M199.5,4.6c27.7,5.7,51.8,23.1,67.8,49c10.8,17.4,15.9,36.8,15.9,55.9c0,3.6-0.2,7.3-0.6,10.9h2.4
					c0.4-3.6,0.6-7.3,0.6-10.9c0-19.5-5.3-39.3-16.3-57.1C248.7,19.1,221,0.5,176.6,0.8c-5.3,0-6.7,0.5-10,0.8c0.7,0,1.4,0,2.2,0
					C178.8,1.5,187.8,2.1,199.5,4.6z"/>
				<path fill="#76C5E2" d="M70.7,120.4c-0.4-3.6-0.5-7.1-0.5-10.7c0-35.7,17.9-68.9,50.5-89.1c11.3-7,23.3-11.6,35.6-14
					c-11.9,1.4-22.7,4.4-33.8,10.2c-1.5,0.8-2.4,1.4-3,1.8c-33.3,20.6-51.6,54.6-51.6,91.1c0,3.6,0.2,7.1,0.5,10.7H70.7z"/>
			</g>
			<g clip-path="url(#SVGID_2_)">
				<path fill="#76C5E2" d="M86.1,165.6c-8.8-14.2-13.8-29.6-15.4-45.2h-2.4c1.6,15.8,6.6,31.5,15.5,45.9
					c7.2,10.4,16,19.2,25.9,26.1C100.6,185.1,92.6,176.1,86.1,165.6z"/>
				<path fill="#76C5E2" d="M282.6,120.4c-3.3,31.8-20.7,61.7-50,79.8c-17.4,10.8-36.8,15.9-55.9,15.9c-10.1,0-20.1-1.4-29.7-4.2
					c-10.4-2.2-20.5-5.9-29.9-11.2c17.8,11.6,38.6,17.7,59.6,17.7c19.5,0,39.3-5.3,57.1-16.3c30-18.5,47.8-49.3,51.1-81.8H282.6z"/>
			</g>
		</g>
	</g>
	<g>
		<g>
			<g>
				<path fill="#FFFFFF" d="M20.1,133.1c-1.1-1.2-3.2-3.5-7.1-3.5c-5.4,0-9.6,4.6-9.6,10c0,5.7,4.7,9.9,9.6,9.9
					c0.7,0,6.4-0.1,8.9-6.4h-12v-3.5h16.3c-0.1,8.7-7.1,13.3-13.3,13.3c-7.5,0-13.2-6.1-13.2-13.3c0-7.4,5.8-13.5,13.2-13.5
					c4.4,0,9.1,2.3,11.6,7H20.1z"/>
				<path fill="#FFFFFF" d="M28.9,152.4v-25.8h3.8V149h9v3.5H28.9z"/>
				<path fill="#FFFFFF" d="M54,152.9c-7.7,0-13.4-6.3-13.4-13.4c0-7,5.6-13.4,13.4-13.4c7.7,0,13.4,6.1,13.4,13.5
					C67.5,146.6,61.7,152.9,54,152.9z M54,129.6c-6.7,0-9.7,5.8-9.7,9.9c0,4.2,3,10,9.7,10c6.7,0,9.7-5.8,9.7-9.8
					C63.7,135.1,60.5,129.6,54,129.6z"/>
				<path fill="#FFFFFF" d="M70.4,126.6h6.7c7.3,0,8.1,5.3,8.1,7.2c0,2.9-1.4,4.1-2.3,4.9c1.1,0.6,3.8,2.3,3.8,6.3
					c0,2.7-1.5,7.5-8.6,7.5h-7.7V126.6z M74.2,137.4h3.1c3.5,0,4.2-2.1,4.2-3.6c0-3.7-3.5-3.7-4.4-3.7h-2.9V137.4z M74.2,149h4.1
					c3.8,0,4.7-2.7,4.7-4c0-0.9-0.4-1.9-0.9-2.5c-1.2-1.5-2.9-1.6-4.2-1.6h-3.6V149z"/>
				<path fill="#FFFFFF" d="M105.8,152.4l-2.9-7.6h-9.3l-2.9,7.6h-4l9.8-25.8h3.4l9.8,25.8H105.8z M101.6,141.4l-3.3-9.9h-0.1
					l-3.3,9.9H101.6z"/>
				<path fill="#FFFFFF" d="M111.5,152.4v-25.8h3.8V149h9v3.5H111.5z"/>
				<path fill="#FFFFFF" d="M151.7,152.4l-2.9-7.6h-9.3l-2.9,7.6h-4l9.8-25.8h3.4l9.8,25.8H151.7z M147.5,141.4l-3.3-9.9h-0.1
					l-3.3,9.9H147.5z"/>
				<path fill="#FFFFFF" d="M157.4,152.4v-25.8h3.8V149h9v3.5H157.4z"/>
				<path fill="#FFFFFF" d="M171.7,152.4v-25.8h3.8V149h9v3.5H171.7z"/>
				<path fill="#FFFFFF" d="M185.9,152.4v-25.8h3.8v25.8H185.9z"/>
				<path fill="#FFFFFF" d="M210.4,152.4l-2.9-7.6h-9.3l-2.9,7.6h-4l9.8-25.8h3.4l9.8,25.8H210.4z M206.2,141.4l-3.3-9.9h-0.1
					l-3.3,9.9H206.2z"/>
				<path fill="#FFFFFF" d="M232.7,152.4l-12.8-20h-0.1v20h-3.8v-25.8h4.1l12.6,19.7h0.1v-19.7h3.8v25.8H232.7z"/>
				<path fill="#FFFFFF" d="M260.2,133.2c-0.8-0.9-3.1-3.6-7.3-3.6c-5.4,0-9.6,4.4-9.6,9.9c0,5.6,4.5,10,9.5,10
					c2.7,0,5.3-1.3,7.1-3.4h4.6c-2.9,5.1-7.7,6.9-11.7,6.9c-7.3,0-13.3-6.2-13.3-13.5c0-7.5,6.1-13.3,13.3-13.3c2,0,5.1,0.5,7.9,2.5
					c2.3,1.7,3.3,3.4,4,4.6H260.2z"/>
				<path fill="#FFFFFF" d="M266.8,152.4v-25.8h13.9v3.5h-10.2v7.6h10.2v3.5h-10.2v7.9h10.2v3.5H266.8z"/>
				<path fill="#FFFFFF" d="M292.9,152.4v-25.8H306v3.5h-9.3v7.8h9.3v3.5h-9.3v11.2H292.9z"/>
				<path fill="#FFFFFF" d="M321,152.9c-7.7,0-13.4-6.3-13.4-13.4c0-7,5.6-13.4,13.4-13.4c7.7,0,13.4,6.1,13.4,13.5
					C334.4,146.6,328.7,152.9,321,152.9z M321,129.6c-6.7,0-9.7,5.8-9.7,9.9c0,4.2,3,10,9.7,10c6.7,0,9.7-5.8,9.7-9.8
					C330.7,135.1,327.4,129.6,321,129.6z"/>
				<path fill="#FFFFFF" d="M349.6,152.4l-8.5-12H341v12h-3.8v-25.8h8c3.6,0,5.5,0.9,6.9,2.2c1.6,1.6,2.4,3.9,2.4,6.1
					c0,6.8-5.7,7.9-7.4,7.9l7.2,9.6H349.6z M341,139.9h2.6c1.5,0,7.1-0.1,7.1-5.1c0-2.2-1.5-4.8-5.7-4.8h-4V139.9z"/>
			</g>
		</g>
		<g>
			<path fill="#FFFFFF" d="M22.3,171.2c-0.8-1-3.3-4-7.9-4c-5.9,0-10.5,4.8-10.5,10.8c0,6,4.9,10.9,10.4,10.9c3,0,5.7-1.4,7.7-3.7
				H27c-3.1,5.5-8.4,7.5-12.8,7.5c-8,0-14.5-6.7-14.5-14.7c0-8.2,6.6-14.5,14.5-14.5c2.1,0,5.6,0.5,8.6,2.7c2.5,1.8,3.6,3.7,4.3,5
				H22.3z"/>
			<path fill="#FFFFFF" d="M29.8,192.2V164h4.1v24.4h9.8v3.8H29.8z"/>
			<path fill="#FFFFFF" d="M45.1,192.2V164h15.2v3.8H49.2v8.3h11.1v3.8H49.2v8.6h11.1v3.8H45.1z"/>
			<path fill="#FFFFFF" d="M82.4,192.2l-3.1-8.3H69.2l-3.1,8.3h-4.3L72.4,164h3.7l10.7,28.1H82.4z M77.9,180.1l-3.6-10.8h-0.1
				l-3.6,10.8H77.9z"/>
			<path fill="#FFFFFF" d="M106.6,192.2l-13.9-21.8h-0.1v21.8h-4.1V164H93l13.7,21.4h0.1V164h4.1v28.1H106.6z"/>
			<path fill="#FFFFFF" d="M146.2,171.2c-0.8-1-3.3-4-7.9-4c-5.9,0-10.5,4.8-10.5,10.8c0,6,4.9,10.9,10.4,10.9c3,0,5.7-1.4,7.7-3.7
				h5.1c-3.1,5.5-8.4,7.5-12.8,7.5c-8,0-14.5-6.7-14.5-14.7c0-8.2,6.6-14.5,14.5-14.5c2.1,0,5.6,0.5,8.6,2.7c2.5,1.8,3.6,3.7,4.3,5
				H146.2z"/>
			<path fill="#FFFFFF" d="M166.5,192.7c-8.4,0-14.6-6.9-14.6-14.6c0-7.6,6-14.6,14.6-14.6c8.4,0,14.6,6.7,14.6,14.7
				C181.1,185.8,174.8,192.7,166.5,192.7z M166.5,167.2c-7.3,0-10.5,6.4-10.5,10.8c0,4.6,3.3,10.8,10.5,10.8
				c7.3,0,10.5-6.3,10.5-10.7C177,173.2,173.5,167.2,166.5,167.2z"/>
			<path fill="#FFFFFF" d="M197.4,192.7c-8.4,0-14.6-6.9-14.6-14.6c0-7.6,6-14.6,14.6-14.6c8.4,0,14.6,6.7,14.6,14.7
				C212,185.8,205.8,192.7,197.4,192.7z M197.4,167.2c-7.3,0-10.5,6.4-10.5,10.8c0,4.6,3.3,10.8,10.5,10.8c7.3,0,10.5-6.3,10.5-10.7
				C207.9,173.2,204.4,167.2,197.4,167.2z"/>
			<path fill="#FFFFFF" d="M229.5,192.2L218.8,178h-0.1v14.2h-4.1V164h4.1v14h0.1l10.7-14h5.1l-11,14l11,14.2H229.5z"/>
			<path fill="#FFFFFF" d="M238.2,183.8c0,1,0.4,5.1,4.6,5.1c2.6,0,4.5-1.8,4.5-4.8c0-3.2-2.6-3.8-4.5-4.6c-3.8-1.4-4.7-1.9-6-3.2
				c-1.3-1.3-1.9-3.3-1.9-5.3c0-3.3,2.5-7.6,7.9-7.6c4.7,0,8.1,3.1,8.1,7.8h-4.1c0-3.1-2.3-4.1-4-4.1c-2.4,0-3.8,2.2-3.8,3.8
				c0,2.7,2.5,3.4,3.8,3.9c3.5,1.3,8.6,2.4,8.6,9.2c0,4.9-3.5,8.5-8.6,8.5c-3.9,0-8.7-2.6-8.7-8.9H238.2z"/>
			<path fill="#FFFFFF" d="M257.1,192.2v-24.4h-5.4V164h14.9v3.8h-5.4v24.4H257.1z"/>
			<path fill="#FFFFFF" d="M280.4,192.7c-8.4,0-14.6-6.9-14.6-14.6c0-7.6,6-14.6,14.6-14.6c8.4,0,14.6,6.7,14.6,14.7
				C295,185.8,288.7,192.7,280.4,192.7z M280.4,167.2c-7.3,0-10.5,6.4-10.5,10.8c0,4.6,3.3,10.8,10.5,10.8c7.3,0,10.5-6.3,10.5-10.7
				C290.9,173.2,287.4,167.2,280.4,167.2z"/>
			<path fill="#FFFFFF" d="M305.3,192.2L294,164h4.4l8.2,21.1l8.2-21.1h4.3l-11.3,28.1H305.3z"/>
			<path fill="#FFFFFF" d="M320.7,192.2V164h15.2v3.8h-11.1v8.3h11.1v3.8h-11.1v8.6h11.1v3.8H320.7z"/>
			<path fill="#FFFFFF" d="M341.5,183.8c0,1,0.4,5.1,4.6,5.1c2.6,0,4.5-1.8,4.5-4.8c0-3.2-2.6-3.8-4.5-4.6c-3.8-1.4-4.7-1.9-6-3.2
				c-1.3-1.3-1.9-3.3-1.9-5.3c0-3.3,2.5-7.6,7.9-7.6c4.7,0,8.1,3.1,8.1,7.8H350c0-3.1-2.3-4.1-4-4.1c-2.4,0-3.8,2.2-3.8,3.8
				c0,2.7,2.5,3.4,3.8,3.9c3.5,1.3,8.6,2.4,8.6,9.2c0,4.9-3.5,8.5-8.6,8.5c-3.9,0-8.7-2.6-8.7-8.9H341.5z"/>
		</g>
	</g>
</g>
</svg>
